#!OML:ASF F:\twosubjects\two\wednesday\Session 1\rory1.ASF
:FULLY-SPECIFIED
:DEGREES
195
root 17.2748 18.8649 15.1727 2.43987 4.34311 3.42365
lowerback 3.40844 0.847506 -5.94204
upperback 1.17003 0.9266 -0.742938
thorax -0.787535 0.460807 2.52783
lowerneck -10.8399 -6.15563 -4.34712
upperneck 13.8635 -8.35531 4.65029
head 6.37441 -3.91243 1.44162
rclavicle 1.60394e-014 -2.0276e-014
rhumerus 29.1495 -10.3147 -81.0646
rradius 39.9759
rwrist -14.8631
rhand -12.3784 31.3053
rfingers 7.12502
rthumb 13.6923 1.77572
lclavicle 1.60394e-014 -2.0276e-014
lhumerus -57.595 22.838 59.1457
lradius 11.2976
lwrist -18.4468
lhand -16.4793 19.7185
lfingers 7.12502
lthumb 9.73773 49.4734
rfemur -54.1254 7.19119 4.34858
rtibia 25.7848
rfoot -4.39144 -14.6109
rtoes 5.06944
lfemur 10.8844 -1.91588 -28.7371
ltibia 4.03344
lfoot -11.6615 7.88295
ltoes -19.103
196
root 17.2628 18.8442 15.333 2.49685 4.66131 3.46666
lowerback 3.54764 0.838384 -6.00709
upperback 1.08693 0.898421 -0.761686
thorax -0.949373 0.452841 2.54365
lowerneck -10.6933 -6.23448 -4.39938
upperneck 13.9197 -8.48415 4.78691
head 6.38162 -3.96852 1.48422
rclavicle -6.72141e-015 -5.96354e-016
rhumerus 29.1653 -10.3432 -80.5619
rradius 40.0101
rwrist -15.1669
rhand -12.7866 31.7843
rfingers 7.12502
rthumb 13.2989 2.22862
lclavicle -6.72141e-015 -5.96354e-016
lhumerus -58.399 23.9305 56.8398
lradius 10.8969
lwrist -20.4614
lhand -16.469 19.7036
lfingers 7.12502
lthumb 9.74764 49.458
rfemur -54.2036 7.6914 3.72991
rtibia 25.5445
rfoot -4.6357 -15.3327
rtoes 2.54991
lfemur 13.5006 -1.77875 -28.5713
ltibia 1.59028e-014
lfoot -9.70468 7.67178
ltoes -19.4163
197
root 17.2552 18.8274 15.5075 2.52564 5.13008 3.58845
lowerback 3.50855 0.815198 -6.08072
upperback 1.04913 0.866278 -0.779992
thorax -0.964346 0.438095 2.56761
lowerneck -10.4527 -6.3757 -4.68078
upperneck 13.9097 -8.67282 5.0029
head 6.36868 -4.06182 1.5859
rclavicle 1.90709e-014 9.93923e-015
rhumerus 28.9317 -10.6034 -80.0741
rradius 40.2103
rwrist -14.8982
rhand -12.8208 31.7901
rfingers 7.12502
rthumb 13.266 2.23227
lclavicle 1.90709e-014 9.93923e-015
lhumerus -59.211 24.9605 54.563
lradius 10.5393
lwrist -22.6492
lhand -15.8291 19.8318
lfingers 7.12502
lthumb 10.365 49.5564
rfemur -54.2718 7.92454 3.20833
rtibia 25.8791
rfoot -5.107 -15.9314
rtoes -0.0646622
lfemur 14.1232 -1.77469 -28.5576
ltibia 3.18055e-015
lfoot -9.75995 7.27768
ltoes -21.3704
198
root 17.2674 18.8307 15.7074 2.28078 5.74583 4.16987
lowerback 3.14863 0.717338 -6.53227
upperback 1.39634 0.764702 -0.859483
thorax -0.398915 0.363561 2.7489
lowerneck -10.4261 -6.38646 -4.60792
upperneck 13.7405 -8.6446 4.71366
head 6.29238 -4.06908 1.48902
rclavicle -2.53699e-014 1.08835e-014
rhumerus 28.9023 -10.73 -79.4577
rradius 40.6431
rwrist -15.208
rhand -12.9814 30.8949
rfingers 7.12502
rthumb 13.1111 1.32708
lclavicle -2.53699e-014 1.08835e-014
lhumerus -59.845 26.3959 52.3665
lradius 10.149
lwrist -25.1071
lhand -16.0038 19.3583
lfingers 7.12502
lthumb 10.1965 49.0912
rfemur -53.7124 7.31811 2.86482
rtibia 26.3827
rfoot -5.12272 -15.2854
rtoes -1.87049
lfemur 15.1525 -1.86939 -29.1019
ltibia -1.59028e-014
lfoot -9.80303 6.84885
ltoes -22.5104
199
root 17.2861 18.8329 15.92 1.91043 6.32417 5.44324
lowerback 2.9399 0.593048 -7.62547
upperback 1.73907 0.605516 -1.19787
thorax 0.0840412 0.256538 3.01894
lowerneck -10.2311 -6.30572 -4.26841
upperneck 13.5931 -8.53602 4.37358
head 6.1766 -4.03034 1.34725
rclavicle -4.89507e-015 -1.43622e-014
rhumerus 29.0286 -10.9893 -79.3273
rradius 40.6054
rwrist -15.1019
rhand -13.5578 31.0692
rfingers 7.12502
rthumb 12.5555 1.46642
lclavicle -4.89507e-015 -1.43622e-014
lhumerus -59.7402 26.573 52.0976
lradius 9.92039
lwrist -25.1656
lhand -16.0435 19.5963
lfingers 7.12502
lthumb 10.1582 49.331
rfemur -52.7963 6.26566 2.12774
rtibia 26.7313
rfoot -5.10618 -13.8451
rtoes -2.58727
lfemur 16.4051 -1.89259 -30.42
ltibia 0
lfoot -9.74773 6.4015
ltoes -23.19
200
root 17.2808 18.7875 16.106 1.9423 6.73128 5.7574
lowerback 2.94316 0.505346 -7.86556
upperback 1.67418 0.479187 -1.2933
thorax 0.0284873 0.196055 3.05768
lowerneck -9.87099 -6.40876 -4.31722
upperneck 13.5563 -8.6866 4.41813
head 6.11433 -4.10889 1.36685
rclavicle -1.06101e-014 7.95139e-016
rhumerus 28.8546 -11.0522 -79.1802
rradius 40.5541
rwrist -15.0534
rhand -14.4276 31.5733
rfingers 7.12502
rthumb 11.7167 1.92099
lclavicle -1.06101e-014 7.95139e-016
lhumerus -59.8863 26.5735 51.6517
lradius 9.78365
lwrist -25.3733
lhand -15.1632 20.1922
lfingers 7.12502
lthumb 11.0073 49.8836
rfemur -52.3425 5.59381 2.43392
rtibia 27.1757
rfoot -4.89352 -12.6273
rtoes -5.34835
lfemur 17.0739 -1.83416 -30.5773
ltibia -6.36111e-015
lfoot -9.6635 5.95349
ltoes -23.8042
201
root 17.2626 18.7701 16.2588 2.3785 7.0082 4.87991
lowerback 2.72563 0.433522 -7.05919
upperback 1.50547 0.414504 -0.950031
thorax -0.0168477 0.172656 2.96537
lowerneck -10.048 -6.52328 -4.77209
upperneck 13.7001 -8.79942 4.60758
head 6.22478 -4.16731 1.4794
rclavicle -1.49585e-014 1.69464e-014
rhumerus 28.7301 -10.9828 -78.7359
rradius 40.7187
rwrist -15.3831
rhand -14.2565 31.4678
rfingers 7.12502
rthumb 11.8818 1.82496
lclavicle -1.49585e-014 1.69464e-014
lhumerus -59.7822 26.9062 51.5172
lradius 9.57056
lwrist -25.5394
lhand -14.7879 21.2027
lfingers 7.12502
lthumb 11.3693 50.8745
rfemur -52.8655 6.74382 2.4664
rtibia 27.0637
rfoot -4.68165 -13.6419
rtoes -2.75349
lfemur 17.0422 -1.74155 -29.3367
ltibia -6.36111e-015
lfoot -9.36059 5.44823
ltoes -24.7569
202
root 17.2514 18.7862 16.42 2.64949 7.32406 4.31772
lowerback 2.45153 0.320603 -6.58572
upperback 1.49174 0.297011 -0.68484
thorax 0.134367 0.111181 2.97893
lowerneck -10.0974 -6.49485 -4.85107
upperneck 13.5458 -8.73014 4.55563
head 6.18217 -4.14238 1.48246
rclavicle 2.86378e-014 5.13113e-015
rhumerus 28.7905 -10.889 -78.418
rradius 40.7091
rwrist -15.7492
rhand -13.8377 31.3066
rfingers 7.12502
rthumb 12.2856 1.68749
lclavicle 2.86378e-014 5.13113e-015
lhumerus -59.5953 27.4485 51.3756
lradius 9.35575
lwrist -25.3559
lhand -14.5975 22.5747
lfingers 7.12502
lthumb 11.553 52.2362
rfemur -52.3156 7.12649 3.00602
rtibia 26.5189
rfoot -4.56663 -13.9617
rtoes 0.10098
lfemur 17.2008 -1.64605 -28.4624
ltibia 9.54166e-015
lfoot -8.89071 4.94477
ltoes -25.4169
203
root 17.2432 18.7497 16.6015 2.71277 7.65017 4.40137
lowerback 2.62204 0.268014 -6.62295
upperback 1.30973 0.204378 -0.690874
thorax -0.139998 0.0773053 2.9951
lowerneck -9.80779 -6.48175 -4.80239
upperneck 13.5166 -8.71907 4.48123
head 6.11721 -4.14548 1.46233
rclavicle -1.0781e-014 6.73383e-015
rhumerus 28.3072 -10.9532 -78.1519
rradius 40.6892
rwrist -15.9931
rhand -13.4785 31.2607
rfingers 7.12502
rthumb 12.6319 1.66261
lclavicle -1.0781e-014 6.73383e-015
lhumerus -59.7299 27.5368 51.0198
lradius 9.31254
lwrist -25.3748
lhand -15.1339 21.7923
lfingers 7.12502
lthumb 11.0356 51.4822
rfemur -51.4729 7.27291 2.98728
rtibia 25.8139
rfoot -4.63347 -13.9533
rtoes 1.72195
lfemur 17.7487 -1.53086 -28.3114
ltibia -1.90833e-014
lfoot -8.58516 4.50055
ltoes -24.9589
204
root 17.2333 18.7157 16.7859 2.89738 7.91106 4.74523
lowerback 2.64666 0.229478 -6.9383
upperback 1.12113 0.134625 -0.794226
thorax -0.341443 0.0524567 3.06647
lowerneck -9.71594 -6.48936 -4.67405
upperneck 13.6865 -8.74011 4.34775
head 6.14428 -4.15901 1.39925
rclavicle -1.56784e-014 1.63128e-014
rhumerus 27.8046 -11.2804 -78.2104
rradius 40.6851
rwrist -15.8453
rhand -12.5798 31.0631
rfingers 7.12502
rthumb 13.4982 1.52057
lclavicle -1.56784e-014 1.63128e-014
lhumerus -59.8179 27.6014 50.6272
lradius 9.30032
lwrist -25.6224
lhand -16.2859 20.056
lfingers 7.12502
lthumb 9.92433 49.8021
rfemur -50.9606 7.89046 2.20783
rtibia 25.4187
rfoot -5.28375 -14.414
rtoes 7.37461
lfemur 18.2103 -1.37878 -28.4141
ltibia 1.90833e-014
lfoot -8.37639 4.0632
ltoes -23.823
205
root 17.2193 18.7006 16.9649 3.18416 8.30951 4.76213
lowerback 2.16823 0.0739607 -7.02846
upperback 1.15952 -0.0313423 -0.797024
thorax -0.0157459 -0.0420896 3.11835
lowerneck -9.64809 -6.38716 -4.32168
upperneck 13.6317 -8.62796 4.16876
head 6.0862 -4.10193 1.30127
rclavicle -2.32914e-014 -1.25227e-014
rhumerus 27.702 -11.4554 -78.403
rradius 40.5815
rwrist -15.6752
rhand -12.5875 30.9013
rfingers 7.12502
rthumb 13.4908 1.35829
lclavicle -2.32914e-014 -1.25227e-014
lhumerus -59.5788 28.0309 50.2787
lradius 9.17766
lwrist -25.6779
lhand -16.7803 20.0236
lfingers 7.12502
lthumb 9.44735 49.7918
rfemur -50.421 8.86818 1.43439
rtibia 24.8161
rfoot -6.27783 -15.3913
rtoes 13.8242
lfemur 18.4944 -1.37932 -28.1318
ltibia 0
lfoot -8.05326 3.66028
ltoes -23.9863
